<svg version="1.1" xmlns="http://www.w3.org/2000/svg" xmlns:xlink="http://www.w3.org/1999/xlink" viewBox="0 0 252 252"><g fill="none" fill-rule="nonzero" stroke="none" stroke-width="1" stroke-linecap="butt" stroke-linejoin="miter" stroke-miterlimit="10" stroke-dasharray="" stroke-dashoffset="0" font-family="none" font-weight="none" font-size="none" text-anchor="none" style="mix-blend-mode: normal"><path d="M0,252v-252h252v252z" fill="none"></path><g id="Layer_1"><g><path d="M125.9937,240.9813c-13.2489,-14.9751 -78.7437,-92.1249 -78.7437,-152.7813c0,-43.4259 35.3241,-78.75 78.75,-78.75c43.4259,0 78.75,35.3241 78.75,78.75c0,60.354 -65.5074,137.7558 -78.7563,152.7813z" fill="#f1c40f"></path><path d="M126,12.6c41.6871,0 75.6,33.9129 75.6,75.6c0,56.2716 -58.527,128.1987 -75.6063,147.9933c-17.0919,-19.7379 -75.5937,-91.4382 -75.5937,-147.9933c0,-41.6871 33.9129,-75.6 75.6,-75.6M126,6.3c-45.234,0 -81.9,36.666 -81.9,81.9c0,69.1803 81.9,157.5 81.9,157.5c0,0 81.9,-88.6662 81.9,-157.5c0,-45.234 -36.666,-81.9 -81.9,-81.9z" fill="#f39c12"></path></g><g><path d="M126,122.85c-19.1016,0 -34.65,-15.5421 -34.65,-34.65c0,-19.1079 15.5484,-34.65 34.65,-34.65c19.1016,0 34.65,15.5421 34.65,34.65c0,19.1079 -15.5484,34.65 -34.65,34.65z" fill="#f2faff"></path><path d="M126,56.7c17.3943,0 31.5,14.1057 31.5,31.5c0,17.3943 -14.1057,31.5 -31.5,31.5c-17.3943,0 -31.5,-14.1057 -31.5,-31.5c0,-17.3943 14.1057,-31.5 31.5,-31.5M126,50.4c-20.8404,0 -37.8,16.9596 -37.8,37.8c0,20.8404 16.9596,37.8 37.8,37.8c20.8404,0 37.8,-16.9596 37.8,-37.8c0,-20.8404 -16.9596,-37.8 -37.8,-37.8z" fill="#f39c12"></path></g></g></g></svg>
